<svg xmlns="http://www.w3.org/2000/svg" width="68" height="85" viewBox="0 0 68 85">
  <metadata><?xpacket begin="﻿" id="W5M0MpCehiHzreSzNTczkc9d"?>
<x:xmpmeta xmlns:x="adobe:ns:meta/" x:xmptk="Adobe XMP Core 5.6-c138 79.159824, 2016/09/14-01:09:01        ">
   <rdf:RDF xmlns:rdf="http://www.w3.org/1999/02/22-rdf-syntax-ns#">
      <rdf:Description rdf:about=""/>
   </rdf:RDF>
</x:xmpmeta>
                                                                                                    
                                                                                                    
                                                                                                    
                                                                                                    
                                                                                                    
                                                                                                    
                                                                                                    
                                                                                                    
                                                                                                    
                                                                                                    
                                                                                                    
                                                                                                    
                                                                                                    
                                                                                                    
                                                                                                    
                                                                                                    
                                                                                                    
                                                                                                    
                                                                                                    
                                                                                                    
                           
<?xpacket end="w"?></metadata>
<defs>
    <style>
      .cls-1 {
        fill: #fff;
        fill-rule: evenodd;
        opacity: 0.26;
      }
    </style>
  </defs>
  <path id="beermug_Cheers_" data-name="beermug (Cheers!)" class="cls-1" d="M731,891.5h51v51H731v-51Zm7.084,45.333h36.833a7.083,7.083,0,0,1,0,14.166H738.083A7.083,7.083,0,1,1,738.083,936.833Zm51-36.834A9.917,9.917,0,0,1,799,909.916v19.833a9.917,9.917,0,1,1-19.833,0V909.916A9.917,9.917,0,0,1,789.083,900Zm-9.917,0h8.5v5.667h-8.5V900Zm0,34h8.5v5.667h-8.5V934Zm8.5-25.5a5.666,5.666,0,0,1,5.666,5.667V925.5a5.667,5.667,0,0,1-11.333,0V914.166A5.667,5.667,0,0,1,787.666,908.5Zm-5.667,0h5.667v5.667H782V908.5Zm0,17h5.667v5.666H782V925.5Zm-42.5-19.834h5.667v31.167H739.5V905.666Zm14.167,0h5.667v31.167h-5.667V905.666Zm14.166,0H773.5v31.167h-5.667V905.666Zm-17-19.833c6.26,0,11.334,3.171,11.334,7.083S757.092,900,750.832,900s-11.333-3.171-11.333-7.083S744.573,885.833,750.832,885.833Zm19.834-5.667c6.259,0,11.333,4.44,11.333,9.917S776.925,900,770.666,900s-11.333-4.439-11.333-9.916S764.407,880.166,770.666,880.166Zm-32.583,0A7.084,7.084,0,1,1,731,887.249,7.083,7.083,0,0,1,738.083,880.166ZM753.666,866a11.334,11.334,0,1,1-11.333,11.334A11.333,11.333,0,0,1,753.666,866Zm17,8.5c6.259,0,11.333,4.44,11.333,9.917s-5.074,9.917-11.333,9.917-11.333-4.44-11.333-9.917S764.407,874.5,770.666,874.5Zm-19.834,5.667c6.26,0,11.334,3.171,11.334,7.083s-5.074,7.084-11.334,7.084-11.333-3.172-11.333-7.084S744.573,880.166,750.832,880.166ZM738.083,874.5A7.084,7.084,0,1,1,731,881.583,7.084,7.084,0,0,1,738.083,874.5Z" transform="translate(-731 -866)"/>
</svg>
