<svg xmlns="http://www.w3.org/2000/svg" width="80" height="70" viewBox="0 0 80 70">
  <metadata><?xpacket begin="﻿" id="W5M0MpCehiHzreSzNTczkc9d"?>
<x:xmpmeta xmlns:x="adobe:ns:meta/" x:xmptk="Adobe XMP Core 5.6-c138 79.159824, 2016/09/14-01:09:01        ">
   <rdf:RDF xmlns:rdf="http://www.w3.org/1999/02/22-rdf-syntax-ns#">
      <rdf:Description rdf:about=""/>
   </rdf:RDF>
</x:xmpmeta>
                                                                                                    
                                                                                                    
                                                                                                    
                                                                                                    
                                                                                                    
                                                                                                    
                                                                                                    
                                                                                                    
                                                                                                    
                                                                                                    
                                                                                                    
                                                                                                    
                                                                                                    
                                                                                                    
                                                                                                    
                                                                                                    
                                                                                                    
                                                                                                    
                                                                                                    
                                                                                                    
                           
<?xpacket end="w"?></metadata>
<defs>
    <style>
      .cls-1 {
        fill: #fff;
        fill-rule: evenodd;
      }
    </style>
  </defs>
  <path id="camera" class="cls-1" d="M476.5,889h65a7.5,7.5,0,0,1,7.5,7.5v45a7.5,7.5,0,0,1-7.5,7.5h-65a7.5,7.5,0,0,1-7.5-7.5v-45A7.5,7.5,0,0,1,476.5,889Zm20-10h25c1.381,0,2.5,1.492,2.5,3.333v5.833c0,1.841-1.119,3.334-2.5,3.334h-25c-1.38,0-2.5-1.493-2.5-3.334v-5.833C494,880.492,495.119,879,496.5,879ZM509,896.5A22.5,22.5,0,1,1,486.5,919,22.5,22.5,0,0,1,509,896.5Zm0,7.5a15,15,0,1,1-15,15A15,15,0,0,1,509,904Zm0,10a5,5,0,1,1-5,5A5,5,0,0,1,509,914Zm-10-30h20v2.5H499V884Z" transform="translate(-469 -879)"/>
</svg>
